<svg width="41" height="40" viewBox="0 0 41 40" fill="none" xmlns="http://www.w3.org/2000/svg">
<path d="M19.7722 2.86035V19.2592H16.7018V14.6937L12.6786 18.7738C12.3609 19.0886 11.9507 19.2592 11.5007 19.2592H4.89678C3.98361 19.2592 3.22925 18.5245 3.22925 17.6062V2.86035H6.29962V16.2155H10.9184L16.715 10.3513V2.86035H19.7722Z" fill="#39F2AE"/>
<path d="M37.8371 7.229C37.8371 7.83247 37.5063 8.38347 36.9769 8.67209L32.7154 11.0204L36.9769 13.3687C37.5063 13.6573 37.8371 14.2083 37.8371 14.8118V19.2592H34.7668V15.6252L29.5657 12.7521L24.3646 15.6252V19.2592H21.2942V14.8118C21.2942 14.2083 21.625 13.6573 22.1544 13.3687L26.4159 11.0204L22.1544 8.67209C21.625 8.38347 21.2942 7.83247 21.2942 7.229V2.86035H24.3646V6.41562L29.5657 9.28869L34.7668 6.41562V2.86035H37.8371V7.229Z" fill="#39F2AE"/>
<path d="M37.7973 23.785C37.7973 24.231 37.6253 24.6377 37.3077 24.9526L34.0123 28.2192H36.1298C37.043 28.2192 37.7973 28.9539 37.7973 29.8722V37.1664H34.727V31.2628H30.9419L25.7673 36.3924C25.2644 36.8909 24.5894 37.1664 23.9013 37.1664C23.5572 37.1664 23.2131 37.1008 22.8822 36.9696C21.8896 36.5629 21.2544 35.6052 21.2544 34.5426V20.7676H24.3248V33.5455L34.7402 23.2208V20.7676H37.8106V23.7981L37.7973 23.785Z" fill="#39F2AE"/>
<path d="M18.0517 20.7539H9.29054C7.60978 20.7539 6.24664 22.0921 6.2334 23.7582C4.53941 23.7844 3.17627 25.1619 3.17627 26.8411V35.5784C3.17627 36.4181 3.91739 37.1527 4.8438 37.1527H13.6182C15.3122 37.1527 16.6621 35.7883 16.6488 34.1091H8.29796L12.2683 30.1734L15.3386 27.1298L16.6488 25.831V34.1353C18.3296 34.1485 19.7192 32.8103 19.7192 31.1311V22.4069C19.7192 21.5017 18.9781 20.7539 18.0517 20.7539ZM6.2334 31.8526V23.7844H14.3725L6.2334 31.8526Z" fill="#39F2AE"/>
</svg>
