<?xml version="1.0" encoding="UTF-8"?>
<svg id="Capa_1" data-name="Capa 1" xmlns="http://www.w3.org/2000/svg" viewBox="0 0 30.98 30.49">
  <defs>
    <style>
      .cls-1 {
        fill: #06e32b;
      }
    </style>
  </defs>
  <g>
    <path class="cls-1" d="M14.94,2.18v12.5h-2.32v-3.48l-3.04,3.11c-.24.24-.55.37-.89.37H3.7c-.69,0-1.26-.56-1.26-1.26V2.18h2.32v10.18h3.49l4.38-4.47V2.18h2.31Z"/>
    <path class="cls-1" d="M28.59,5.51c0,.46-.25.88-.65,1.1l-3.22,1.79,3.22,1.79c.4.22.65.64.65,1.1v3.39h-2.32v-2.77l-3.93-2.19-3.93,2.19v2.77h-2.32v-3.39c0-.46.25-.88.65-1.1l3.22-1.79-3.22-1.79c-.4-.22-.65-.64-.65-1.1v-3.33h2.32v2.71l3.93,2.19,3.93-2.19v-2.71h2.32v3.33h0Z"/>
  </g>
  <path class="cls-1" d="M28.56,18.13c0,.34-.13.65-.37.89l-2.49,2.49h1.6c.69,0,1.26.56,1.26,1.26v5.56h-2.32v-4.5h-2.86l-3.91,3.91c-.38.38-.89.59-1.41.59-.26,0-.52-.05-.77-.15-.75-.31-1.23-1.04-1.23-1.85v-10.5h2.32v9.74l7.87-7.87v-1.87h2.32v2.31h0Z"/>
  <path class="cls-1" d="M13.64,15.82h-6.62c-1.27,0-2.3,1.02-2.31,2.29-1.28.02-2.31,1.07-2.31,2.35v6.66c0,.64.56,1.2,1.26,1.2h6.63c1.28,0,2.3-1.04,2.29-2.32h-6.31l3-3,2.32-2.32.99-.99v6.33c1.27.01,2.32-1.01,2.32-2.29v-6.65c0-.69-.56-1.26-1.26-1.26ZM4.71,24.28v-6.15h6.15l-6.15,6.15Z"/>
</svg>