<svg width="48" height="48" viewBox="0 0 48 48" fill="none" xmlns="http://www.w3.org/2000/svg">
<path d="M31.5421 21.5249L34.0203 17.242C34.2358 16.8244 34.0742 16.3126 33.6701 16.0971C33.4804 15.9983 33.2606 15.9738 33.0538 16.0286C32.847 16.0835 32.6681 16.2136 32.5523 16.3935L30.0202 20.7572C28.1156 19.9504 26.0683 19.5347 23.9998 19.5347C21.9314 19.5347 19.884 19.9504 17.9794 20.7572L15.4474 16.3935C15.3249 16.2056 15.1344 16.0725 14.9159 16.0223C14.6973 15.9721 14.4678 16.0085 14.2756 16.1241C13.8985 16.3665 13.7773 16.8514 13.9793 17.242L16.4575 21.5249C14.4014 22.6995 12.6637 24.3592 11.3961 26.3593C10.1284 28.3594 9.36916 30.6392 9.18457 33H38.8151C38.6305 30.6392 37.8713 28.3594 36.6036 26.3593C35.3359 24.3592 33.5983 22.6995 31.5421 21.5249ZM17.2656 29.2962C16.8191 29.2962 16.3909 29.1188 16.0752 28.8031C15.7594 28.4874 15.5821 28.0591 15.5821 27.6126C15.5821 27.1661 15.7594 26.7379 16.0752 26.4222C16.3909 26.1065 16.8191 25.9291 17.2656 25.9291C17.7121 25.9291 18.1403 26.1065 18.4561 26.4222C18.7718 26.7379 18.9492 27.1661 18.9492 27.6126C18.9492 28.0591 18.7718 28.4874 18.4561 28.8031C18.1403 29.1188 17.7121 29.2962 17.2656 29.2962ZM30.734 29.2962C30.2875 29.2962 29.8593 29.1188 29.5436 28.8031C29.2278 28.4874 29.0505 28.0591 29.0505 27.6126C29.0505 27.1661 29.2278 26.7379 29.5436 26.4222C29.8593 26.1065 30.2875 25.9291 30.734 25.9291C31.1805 25.9291 31.6087 26.1065 31.9245 26.4222C32.2402 26.7379 32.4176 27.1661 32.4176 27.6126C32.4176 28.0591 32.2402 28.4874 31.9245 28.8031C31.6087 29.1188 31.1805 29.2962 30.734 29.2962Z" fill="#39F2AE"/>
</svg>
