<svg width="48" height="48" viewBox="0 0 48 48" fill="none" xmlns="http://www.w3.org/2000/svg">
<path d="M36.8571 28.2857C38.0389 28.2857 39 27.3246 39 26.1429V21.8571C39 20.6764 38.0389 19.7143 36.8571 19.7143H35.7857V14.3571C35.7857 13.1764 34.8246 12.2143 33.6429 12.2143H28.2857V11.1429C28.2857 9.96214 27.3246 9 26.1429 9H21.8571C20.6754 9 19.7143 9.96214 19.7143 11.1429V12.2143H14.3571C13.1754 12.2143 12.2143 13.1764 12.2143 14.3571V19.8664C10.3714 20.3454 9 22.0093 9 24C9 25.9907 10.3714 27.6536 12.2143 28.1336V33.6429C12.2143 34.8246 13.1754 35.7857 14.3571 35.7857H21.8571V36.8571C21.8571 38.0389 22.8182 39 24 39H36.8571C38.0389 39 39 38.0389 39 36.8571V32.5714C39 31.3907 38.0389 30.4286 36.8571 30.4286H35.7857V28.2857H36.8571ZM36.8571 26.1429H32.5714V21.8571H36.8571V26.1429ZM21.8571 11.1429H26.1429V15.4286H21.8571V11.1429ZM19.7143 14.3571V15.4286C19.7143 16.6104 20.6754 17.5714 21.8571 17.5714H26.1429C27.3246 17.5714 28.2857 16.6104 28.2857 15.4286V14.3571H33.6429V19.7143H32.5714C31.3896 19.7143 30.4286 20.6764 30.4286 21.8571V22.9286H17.4193C17.2267 22.1922 16.8416 21.5205 16.3034 20.9823C15.7653 20.4441 15.0935 20.059 14.3571 19.8664V14.3571H19.7143ZM11.1429 24C11.1429 22.8193 12.1039 21.8571 13.2857 21.8571C14.4675 21.8571 15.4286 22.8193 15.4286 24C15.4286 25.1807 14.4675 26.1429 13.2857 26.1429C12.1039 26.1429 11.1429 25.1818 11.1429 24ZM36.8571 36.8571H24V32.5714H36.8571V36.8571ZM33.6429 30.4286H24C22.8182 30.4286 21.8571 31.3907 21.8571 32.5714V33.6429H14.3571V28.1336C15.0935 27.941 15.7653 27.5559 16.3034 27.0177C16.8416 26.4795 17.2267 25.8078 17.4193 25.0714H30.4286V26.1429C30.4286 27.3246 31.3896 28.2857 32.5714 28.2857H33.6429V30.4286Z" fill="#39F2AE"/>
</svg>
