<svg width="48" height="48" viewBox="0 0 48 48" fill="none" xmlns="http://www.w3.org/2000/svg">
<path d="M25.2275 20.8027C25.2275 20.2802 25.0199 19.7787 24.6504 19.4092C24.281 19.0398 23.7802 18.8321 23.2578 18.832C22.7353 18.832 22.2338 19.0397 21.8643 19.4092C21.4948 19.7787 21.2871 20.2802 21.2871 20.8027C21.2872 21.3251 21.4949 21.8259 21.8643 22.1953C22.2338 22.5648 22.7353 22.7725 23.2578 22.7725C23.7802 22.7724 24.281 22.5647 24.6504 22.1953C25.0198 21.8259 25.2274 21.3251 25.2275 20.8027ZM27.2275 20.8027C27.2274 21.8556 26.8089 22.8649 26.0645 23.6094C25.32 24.3538 24.3106 24.7724 23.2578 24.7725C22.2048 24.7725 21.1948 24.3539 20.4502 23.6094C19.7058 22.8649 19.2872 21.8555 19.2871 20.8027C19.2871 19.7497 19.7056 18.7397 20.4502 17.9951C21.1948 17.2505 22.2048 16.832 23.2578 16.832C24.3106 16.8321 25.32 17.2507 26.0645 17.9951C26.809 18.7397 27.2275 19.7497 27.2275 20.8027Z" fill="#39F2AE"/>
<path d="M35.7282 29.5362C35.6845 28.6551 35.315 27.8194 34.6883 27.1927C34.0198 26.5243 33.1135 26.1485 32.1682 26.1485C31.2228 26.1485 30.3165 26.5243 29.6481 27.1927C28.9796 27.8611 28.6038 28.7675 28.6038 29.7128C28.6038 30.6581 28.9796 31.5645 29.6481 32.2329C30.3165 32.9014 31.2228 33.2772 32.1682 33.2772L32.3448 33.2728C33.2258 33.2291 34.0616 32.8596 34.6883 32.2329C35.3567 31.5645 35.7325 30.6581 35.7325 29.7128L35.7282 29.5362ZM23.2573 11C28.6173 11 33.0745 13.8023 36.6288 19.1433L36.9699 19.6681L37.0152 19.7473C37.2175 20.151 37.0853 20.6503 36.6958 20.8977C36.3063 21.1451 35.7978 21.0525 35.5184 20.6975L35.4662 20.6236L35.1469 20.1328C31.8296 15.1448 27.8669 12.7822 23.2573 12.7822C18.4497 12.7822 14.3399 15.3536 10.9361 20.8019C14.0243 25.7452 17.691 28.3106 21.9094 28.7521L22.2418 28.7826C22.4647 28.7999 22.6895 28.8116 22.9162 28.8174L23.2573 28.8217L23.3487 28.8261C23.7979 28.8718 24.1484 29.2515 24.1484 29.7128C24.1484 30.1741 23.7979 30.5538 23.3487 30.5995L23.2573 30.6039L22.8701 30.5987C22.613 30.5921 22.3574 30.5793 22.1034 30.5595L21.724 30.5247C16.6473 29.9935 12.4583 26.8129 9.12698 21.2605C8.95768 20.9784 8.95767 20.6255 9.12698 20.3434C12.798 14.2251 17.5049 11 23.2573 11ZM37.5077 29.9782C37.4569 31.0007 37.1125 31.9815 36.5244 32.809L38.7391 35.0236L38.8 35.0907C39.0856 35.4406 39.0654 35.9574 38.7391 36.2837C38.4128 36.61 37.896 36.6302 37.546 36.3446L37.479 36.2837L35.2643 34.069C34.4369 34.6571 33.456 35.0016 32.4336 35.0524L32.1682 35.0593C30.7502 35.0593 29.3907 34.4956 28.388 33.493C27.3853 32.4903 26.8217 31.1308 26.8217 29.7128C26.8217 28.2948 27.3853 26.9353 28.388 25.9327C29.3907 24.93 30.7502 24.3663 32.1682 24.3663C33.5862 24.3663 34.9457 24.93 35.9483 25.9327C36.951 26.9353 37.5147 28.2948 37.5147 29.7128L37.5077 29.9782Z" fill="#39F2AE"/>
</svg>
