<svg width="48" height="48" viewBox="0 0 48 48" fill="none" xmlns="http://www.w3.org/2000/svg">
<path d="M28.2522 11.9997H28.2597H28.2522ZM28.2522 11.9997L24.5016 20.9988L32.0029 25.3454L20.7509 35.9973L24.5016 26.9982L17.0003 22.6486L28.2522 11.9997ZM28.2522 9C27.4827 9.00287 26.743 9.29833 26.1834 9.82642L14.9359 20.4679C14.597 20.7891 14.3379 21.185 14.179 21.624C14.0201 22.063 13.9659 22.533 14.0207 22.9966C14.1288 23.9355 14.6764 24.7694 15.494 25.2434L20.7179 28.2746L17.9784 34.8454C17.7893 35.3015 17.7156 35.7971 17.7637 36.2884C17.8118 36.7798 17.9803 37.2517 18.2542 37.6624C18.5282 38.0732 18.8992 38.4101 19.3344 38.6434C19.7696 38.8767 20.2556 38.9992 20.7494 39C21.4966 39 22.2392 38.721 22.8123 38.1781L34.0643 27.5246C34.4029 27.2036 34.6619 26.8079 34.8208 26.3692C34.9797 25.9305 35.034 25.4608 34.9794 24.9974C34.9254 24.5342 34.7642 24.0899 34.5084 23.6999C34.2527 23.3099 33.9095 22.9849 33.5062 22.7506L28.2822 19.7239L30.9662 13.2851C31.1832 12.8276 31.2809 12.3227 31.2501 11.8174C31.2193 11.312 31.0611 10.8227 30.7902 10.395C30.5193 9.96724 30.1445 9.61501 29.7007 9.37109C29.257 9.12718 28.7587 8.99952 28.2522 9Z" fill="#39F2AE"/>
</svg>
