<svg width="48" height="48" viewBox="0 0 48 48" fill="none" xmlns="http://www.w3.org/2000/svg">
<path d="M29.1562 26.125C28.7833 26.125 28.4256 26.2732 28.1619 26.5369C27.8982 26.8006 27.75 27.1583 27.75 27.5312C27.75 27.9042 27.8982 28.2619 28.1619 28.5256C28.4256 28.7893 28.7833 28.9375 29.1562 28.9375H31.9688C32.3417 28.9375 32.6994 28.7893 32.9631 28.5256C33.2268 28.2619 33.375 27.9042 33.375 27.5312C33.375 27.1583 33.2268 26.8006 32.9631 26.5369C32.6994 26.2732 32.3417 26.125 31.9688 26.125H29.1562Z" fill="#39F2AE"/>
<path d="M9 16.2812C9 14.47 10.47 13 12.2812 13H35.7188C37.53 13 39 14.47 39 16.2812V32.2188C39 33.089 38.6543 33.9236 38.0389 34.5389C37.4236 35.1543 36.589 35.5 35.7188 35.5H12.2812C11.411 35.5 10.5764 35.1543 9.96106 34.5389C9.3457 33.9236 9 33.089 9 32.2188V16.2812ZM36.1875 21.4375H11.8125V32.2188C11.8125 32.4775 12.0225 32.6875 12.2812 32.6875H35.7188C35.8431 32.6875 35.9623 32.6381 36.0502 32.5502C36.1381 32.4623 36.1875 32.3431 36.1875 32.2188V21.4375ZM36.1875 16.2812C36.1875 16.1569 36.1381 16.0377 36.0502 15.9498C35.9623 15.8619 35.8431 15.8125 35.7188 15.8125H12.2812C12.1569 15.8125 12.0377 15.8619 11.9498 15.9498C11.8619 16.0377 11.8125 16.1569 11.8125 16.2812V18.625H36.1875V16.2812Z" fill="#39F2AE"/>
</svg>
