<svg width="48" height="48" viewBox="0 0 48 48" fill="none" xmlns="http://www.w3.org/2000/svg">
<mask id="mask0_724_15200" style="mask-type:alpha" maskUnits="userSpaceOnUse" x="0" y="0" width="48" height="48">
<rect width="48" height="48" fill="#D9D9D9"/>
</mask>
<g mask="url(#mask0_724_15200)">
<path d="M17.5125 31.5L14.25 18L24 9L33.75 18L30.4875 31.5H17.5125ZM19.875 28.5H28.125L30.4125 19.0125L25.5 14.475V18.45C25.85 18.7 26.125 19.0125 26.325 19.3875C26.525 19.7625 26.625 20.175 26.625 20.625C26.625 21.35 26.3688 21.9688 25.8563 22.4813C25.3438 22.9938 24.725 23.25 24 23.25C23.275 23.25 22.6562 22.9938 22.1438 22.4813C21.6313 21.9688 21.375 21.35 21.375 20.625C21.375 20.175 21.475 19.7625 21.675 19.3875C21.875 19.0125 22.15 18.7 22.5 18.45V14.475L17.5875 19.0125L19.875 28.5ZM12 39L12.825 36.5625C13.025 35.9375 13.3875 35.4375 13.9125 35.0625C14.4375 34.6875 15.025 34.5 15.675 34.5H32.325C32.975 34.5 33.5625 34.6875 34.0875 35.0625C34.6125 35.4375 34.975 35.9375 35.175 36.5625L36 39H12Z" fill="#39F2AE"/>
</g>
</svg>
