<svg width="48" height="48" viewBox="0 0 48 48" fill="none" xmlns="http://www.w3.org/2000/svg">
<mask id="mask0_225_891" style="mask-type:alpha" maskUnits="userSpaceOnUse" x="0" y="0" width="48" height="48">
<rect width="48" height="48" fill="#D9D9D9"/>
</mask>
<g mask="url(#mask0_225_891)">
<path d="M9 32V30.0312C9 29.1354 9.45833 28.4062 10.375 27.8438C11.2917 27.2812 12.5 27 14 27C14.2708 27 14.5312 27.0052 14.7812 27.0156C15.0312 27.026 15.2708 27.0521 15.5 27.0938C15.2083 27.5312 14.9896 27.9896 14.8438 28.4688C14.6979 28.9479 14.625 29.4479 14.625 29.9688V32H9ZM16.5 32V29.9688C16.5 29.3021 16.6823 28.6927 17.0469 28.1406C17.4115 27.5885 17.9271 27.1042 18.5938 26.6875C19.2604 26.2708 20.0573 25.9583 20.9844 25.75C21.9115 25.5417 22.9167 25.4375 24 25.4375C25.1042 25.4375 26.1198 25.5417 27.0469 25.75C27.974 25.9583 28.7708 26.2708 29.4375 26.6875C30.1042 27.1042 30.6146 27.5885 30.9688 28.1406C31.3229 28.6927 31.5 29.3021 31.5 29.9688V32H16.5ZM33.375 32V29.9688C33.375 29.4271 33.3073 28.9167 33.1719 28.4375C33.0365 27.9583 32.8333 27.5104 32.5625 27.0938C32.7917 27.0521 33.026 27.026 33.2656 27.0156C33.5052 27.0052 33.75 27 34 27C35.5 27 36.7083 27.276 37.625 27.8281C38.5417 28.3802 39 29.1146 39 30.0312V32H33.375ZM19.1562 29.5H28.875C28.6667 29.0833 28.0885 28.7188 27.1406 28.4062C26.1927 28.0938 25.1458 27.9375 24 27.9375C22.8542 27.9375 21.8073 28.0938 20.8594 28.4062C19.9115 28.7188 19.3438 29.0833 19.1562 29.5ZM14 25.75C13.3125 25.75 12.724 25.5052 12.2344 25.0156C11.7448 24.526 11.5 23.9375 11.5 23.25C11.5 22.5417 11.7448 21.9479 12.2344 21.4688C12.724 20.9896 13.3125 20.75 14 20.75C14.7083 20.75 15.3021 20.9896 15.7812 21.4688C16.2604 21.9479 16.5 22.5417 16.5 23.25C16.5 23.9375 16.2604 24.526 15.7812 25.0156C15.3021 25.5052 14.7083 25.75 14 25.75ZM34 25.75C33.3125 25.75 32.724 25.5052 32.2344 25.0156C31.7448 24.526 31.5 23.9375 31.5 23.25C31.5 22.5417 31.7448 21.9479 32.2344 21.4688C32.724 20.9896 33.3125 20.75 34 20.75C34.7083 20.75 35.3021 20.9896 35.7813 21.4688C36.2604 21.9479 36.5 22.5417 36.5 23.25C36.5 23.9375 36.2604 24.526 35.7813 25.0156C35.3021 25.5052 34.7083 25.75 34 25.75ZM24 24.5C22.9583 24.5 22.0729 24.1354 21.3438 23.4062C20.6146 22.6771 20.25 21.7917 20.25 20.75C20.25 19.6875 20.6146 18.7969 21.3438 18.0781C22.0729 17.3594 22.9583 17 24 17C25.0625 17 25.9531 17.3594 26.6719 18.0781C27.3906 18.7969 27.75 19.6875 27.75 20.75C27.75 21.7917 27.3906 22.6771 26.6719 23.4062C25.9531 24.1354 25.0625 24.5 24 24.5ZM24 22C24.3542 22 24.651 21.8802 24.8906 21.6406C25.1302 21.401 25.25 21.1042 25.25 20.75C25.25 20.3958 25.1302 20.099 24.8906 19.8594C24.651 19.6198 24.3542 19.5 24 19.5C23.6458 19.5 23.349 19.6198 23.1094 19.8594C22.8698 20.099 22.75 20.3958 22.75 20.75C22.75 21.1042 22.8698 21.401 23.1094 21.6406C23.349 21.8802 23.6458 22 24 22Z" fill="#39F2AE"/>
</g>
</svg>
