<svg width="48" height="48" viewBox="0 0 48 48" fill="none" xmlns="http://www.w3.org/2000/svg">
<path d="M24.3038 35.1094C24.0584 35.3525 23.6221 35.3931 23.3358 35.1094C23.2081 34.9819 23.1364 34.8095 23.1364 34.6299C23.1364 34.4503 23.2081 34.2779 23.3358 34.1504L27.9578 29.5714L26.0354 27.6668L21.4134 32.2458C21.1544 32.516 20.7181 32.5025 20.4454 32.2458C20.3177 32.1183 20.246 31.946 20.246 31.7663C20.246 31.5867 20.3177 31.4143 20.4454 31.2868L25.0673 26.7078L23.1449 24.8033L18.523 29.3823C18.2776 29.6254 17.8413 29.6659 17.555 29.3823C17.4301 29.2533 17.3604 29.0815 17.3604 28.9028C17.3604 28.724 17.4301 28.5522 17.555 28.4232L22.1769 23.8442L20.2409 21.9397L15.6189 26.5187C15.3735 26.7618 14.9372 26.8023 14.6509 26.5187C14.5261 26.3897 14.4564 26.2179 14.4564 26.0392C14.4564 25.8605 14.5261 25.6887 14.6509 25.5597L20.6226 19.6434L23.1722 22.1558C24.4674 23.439 26.7034 23.4255 27.9987 22.1558C29.3348 20.8321 29.3348 18.6979 27.9987 17.3742L25.4627 14.8618L25.8445 14.4836C26.9079 13.43 28.6395 13.43 29.7029 14.4836L35.4838 20.2107C36.5472 21.2643 36.5472 22.9797 35.4838 24.0333L24.3038 35.1094ZM37.4062 25.9514C38.4269 24.9362 39 23.5617 39 22.1288C39 20.6959 38.4269 19.3214 37.4062 18.3062L31.6253 12.579C30.6006 11.5678 29.2132 11 27.7669 11C26.3205 11 24.9331 11.5678 23.9084 12.579L23.5267 12.9572L23.1449 12.579C22.1202 11.5678 20.7328 11 19.2865 11C17.8402 11 16.4527 11.5678 15.4281 12.579L10.6016 17.3607C9.67874 18.271 9.11617 19.4792 9.01609 20.7656C8.91602 22.052 9.28509 23.3313 10.0562 24.371L12.0332 22.4124C11.7696 21.9026 11.6764 21.323 11.7671 20.7573C11.8578 20.1916 12.1276 19.6691 12.5376 19.2652L17.3641 14.4836C18.4275 13.43 20.1591 13.43 21.2225 14.4836L26.0763 19.2922C26.3217 19.5354 26.3626 19.9676 26.0763 20.2513C25.7899 20.5349 25.3536 20.4944 25.1082 20.2513L20.6226 15.8208L12.7149 23.6416C11.3787 24.9518 11.3787 27.0995 12.7149 28.4232C13.2466 28.95 13.9283 29.2742 14.6509 29.3688C14.7468 30.0949 15.0822 30.7693 15.6049 31.2872C16.1276 31.805 16.8084 32.1373 17.5413 32.2323C17.6372 32.9585 17.9726 33.6329 18.4953 34.1508C19.018 34.6686 19.6988 35.0009 20.4318 35.0959C20.5272 35.8253 20.8544 36.4872 21.3861 37.014C22.0269 37.6488 22.8859 38 23.7994 38C24.7128 38 25.5718 37.6488 26.2126 37.014L37.4062 25.9514Z" fill="#39F2AE"/>
</svg>
