<svg width="48" height="48" viewBox="0 0 48 48" fill="none" xmlns="http://www.w3.org/2000/svg">
<path d="M11.2059 37C10.6176 37 10.1029 36.7833 9.66176 36.35C9.22059 35.9167 9 35.4111 9 34.8333V13.1667C9 12.5889 9.22059 12.0833 9.66176 11.65C10.1029 11.2167 10.6176 11 11.2059 11H36.7941C37.3824 11 37.8971 11.2167 38.3382 11.65C38.7794 12.0833 39 12.5889 39 13.1667V34.8333C39 35.4111 38.7794 35.9167 38.3382 36.35C37.8971 36.7833 37.3824 37 36.7941 37H11.2059ZM11.2059 34.8333H36.7941V13.1667H11.2059V34.8333ZM13.7059 31.2222H21.0588V28.3333H13.7059V31.2222ZM27.75 28.3333L35.0294 21.1833L32.9338 19.125L27.75 24.2528L25.6544 22.1944L23.5956 24.2528L27.75 28.3333ZM13.7059 25.4444H21.0588V22.5556H13.7059V25.4444ZM13.7059 19.6667H21.0588V16.7778H13.7059V19.6667Z" fill="#39F2AE"/>
</svg>
