<svg width="48" height="48" viewBox="0 0 48 48" fill="none" xmlns="http://www.w3.org/2000/svg">
<path d="M15.7874 11.5704C15.6186 11.5704 15.4514 11.6036 15.2954 11.6682C15.1394 11.7328 14.9977 11.8275 14.8783 11.9469C14.7589 12.0663 14.6642 12.208 14.5996 12.364C14.535 12.52 14.5017 12.6872 14.5017 12.856C14.5017 13.0248 14.535 13.192 14.5996 13.348C14.6642 13.504 14.7589 13.6457 14.8783 13.7651C14.9977 13.8845 15.1394 13.9792 15.2954 14.0438C15.4514 14.1084 15.6186 14.1417 15.7874 14.1417C16.1284 14.1417 16.4554 14.0062 16.6965 13.7651C16.9376 13.524 17.073 13.197 17.073 12.856C17.073 12.515 16.9376 12.188 16.6965 11.9469C16.4554 11.7058 16.1284 11.5704 15.7874 11.5704ZM11.9304 12.856C11.9306 12.1489 12.1252 11.4556 12.4929 10.8516C12.8605 10.2477 13.3871 9.75639 14.0151 9.4315C14.6431 9.10661 15.3483 8.96059 16.0537 9.00941C16.7591 9.05823 17.4374 9.3 18.0147 9.70831C18.5919 10.1166 19.0458 10.6757 19.3268 11.3246C19.6077 11.9734 19.7049 12.687 19.6077 13.3873C19.5106 14.0877 19.2227 14.7478 18.7757 15.2957C18.3287 15.8435 17.7397 16.2579 17.073 16.4935V23.1892C17.2216 23.0795 17.3759 22.9778 17.5359 22.8841C19.1627 21.9036 21.2471 21.6173 23.0179 21.3756L23.3248 21.3327C25.3149 21.055 26.928 20.7808 28.0851 20.0008C28.9508 19.4146 29.6913 18.4409 29.8816 16.4764C29.0281 16.1622 28.3131 15.5564 27.8629 14.7661C27.4127 13.9759 27.2562 13.0519 27.4212 12.1575C27.5861 11.263 28.0619 10.4557 28.7643 9.87795C29.4668 9.30025 30.3509 8.98939 31.2603 9.00028C32.1698 9.01116 33.0461 9.34309 33.7346 9.93744C34.4231 10.5318 34.8793 11.3503 35.0228 12.2484C35.1663 13.1466 34.9878 14.0665 34.5188 14.8458C34.0498 15.6251 33.3205 16.2135 32.4598 16.5073C32.2438 19.2106 31.1947 21.0019 29.525 22.1299C27.7885 23.3041 25.5447 23.6212 23.6796 23.8783L23.6367 23.8852C21.6311 24.1629 20.0249 24.3857 18.861 25.0851C18.321 25.4108 17.8976 25.8325 17.5976 26.4257C17.289 27.0325 17.073 27.893 17.073 29.141V31.5031C17.9313 31.8064 18.6548 32.4034 19.1154 33.1885C19.5761 33.9736 19.7444 34.8963 19.5906 35.7935C19.4367 36.6907 18.9706 37.5047 18.2746 38.0914C17.5787 38.6782 16.6977 39 15.7874 39C14.8771 39 13.9961 38.6782 13.3002 38.0914C12.6042 37.5047 12.1381 36.6907 11.9842 35.7935C11.8304 34.8963 11.9987 33.9736 12.4593 33.1885C12.92 32.4034 13.6435 31.8064 14.5017 31.5031V16.4935C13.7496 16.2276 13.0984 15.735 12.6379 15.0835C12.1774 14.432 11.9302 13.6538 11.9304 12.856ZM31.2152 11.5704C31.0464 11.5704 30.8792 11.6036 30.7232 11.6682C30.5673 11.7328 30.4255 11.8275 30.3061 11.9469C30.1868 12.0663 30.0921 12.208 30.0275 12.364C29.9628 12.52 29.9296 12.6872 29.9296 12.856C29.9296 13.0248 29.9628 13.192 30.0275 13.348C30.0921 13.504 30.1868 13.6457 30.3061 13.7651C30.4255 13.8845 30.5673 13.9792 30.7232 14.0438C30.8792 14.1084 31.0464 14.1417 31.2152 14.1417C31.5562 14.1417 31.8832 14.0062 32.1243 13.7651C32.3654 13.524 32.5009 13.197 32.5009 12.856C32.5009 12.515 32.3654 12.188 32.1243 11.9469C31.8832 11.7058 31.5562 11.5704 31.2152 11.5704ZM15.7874 33.855C15.4464 33.855 15.1194 33.9905 14.8783 34.2316C14.6372 34.4727 14.5017 34.7997 14.5017 35.1407C14.5017 35.4816 14.6372 35.8087 14.8783 36.0498C15.1194 36.2909 15.4464 36.4263 15.7874 36.4263C16.1284 36.4263 16.4554 36.2909 16.6965 36.0498C16.9376 35.8087 17.073 35.4816 17.073 35.1407C17.073 34.7997 16.9376 34.4727 16.6965 34.2316C16.4554 33.9905 16.1284 33.855 15.7874 33.855Z" fill="#39F2AE"/>
</svg>
