<svg width="48" height="48" viewBox="0 0 48 48" fill="none" xmlns="http://www.w3.org/2000/svg">
<path fill-rule="evenodd" clip-rule="evenodd" d="M38.0015 19.6263C38.0017 21.0425 37.6893 22.4412 37.0867 23.7227C36.4841 25.0042 35.6061 26.1369 34.5153 27.04C33.4245 27.9431 32.1479 28.5944 30.7764 28.9473C29.405 29.3002 27.9725 29.3461 26.5813 29.0816L25.2674 30.5575C25.144 30.6958 24.9929 30.8065 24.8239 30.8825C24.6549 30.9584 24.4718 30.998 24.2865 30.9985H22.2526V33.1883C22.2526 33.3607 22.2186 33.5315 22.1526 33.6907C22.0865 33.8499 21.9897 33.9946 21.8676 34.1164C21.7456 34.2381 21.6007 34.3346 21.4413 34.4003C21.2819 34.466 21.1111 34.4996 20.9387 34.4993H18.7519V36.6891C18.7519 37.0368 18.6138 37.3702 18.3679 37.616C18.1221 37.8619 17.7887 38 17.441 38H11.3124C11.1398 38.0004 10.9688 37.9667 10.8092 37.9008C10.6496 37.8349 10.5046 37.7381 10.3825 37.616C10.2604 37.494 10.1636 37.349 10.0977 37.1894C10.0319 37.0298 9.99814 36.8587 9.99854 36.6861V32.4174C9.99874 32.0689 10.1368 31.7346 10.3825 31.4875L19.2319 22.6411C18.7543 21.1951 18.6268 19.6565 18.8596 18.1516C19.0925 16.6468 19.6792 15.2187 20.5715 13.9847C21.4637 12.7507 22.6361 11.746 23.9922 11.0533C25.3483 10.3606 26.8494 9.99965 28.3722 10C29.6373 9.99647 30.8907 10.243 32.0602 10.7255C33.2298 11.208 34.2924 11.917 35.187 12.8116C36.0816 13.7062 36.7905 14.7688 37.273 15.9383C37.7555 17.1078 38.0051 18.3612 38.0015 19.6263ZM28.3722 17.0015C28.3722 17.6977 28.6487 18.3653 29.141 18.8575C29.6332 19.3498 30.3009 19.6263 30.997 19.6263C31.6931 19.6263 32.3608 19.3498 32.853 18.8575C33.3453 18.3653 33.6218 17.6977 33.6218 17.0015C33.6218 16.3054 33.3453 15.6378 32.853 15.1455C32.3608 14.6533 31.6931 14.3767 30.997 14.3767C30.3009 14.3767 29.6332 14.6533 29.141 15.1455C28.6487 15.6378 28.3722 16.3054 28.3722 17.0015Z" fill="#39F2AE"/>
</svg>
