<svg width="48" height="48" viewBox="0 0 48 48" fill="none" xmlns="http://www.w3.org/2000/svg">
<path d="M22.5 32H16.5C14.425 32 12.6565 31.2685 11.1945 29.8055C9.7325 28.3425 9.001 26.574 9 24.5C8.999 22.426 9.7305 20.6575 11.1945 19.1945C12.6585 17.7315 14.427 17 16.5 17H22.5V20H16.5C15.25 20 14.1875 20.4375 13.3125 21.3125C12.4375 22.1875 12 23.25 12 24.5C12 25.75 12.4375 26.8125 13.3125 27.6875C14.1875 28.5625 15.25 29 16.5 29H22.5V32ZM18 26V23H30V26H18ZM25.5 32V29H31.5C32.75 29 33.8125 28.5625 34.6875 27.6875C35.5625 26.8125 36 25.75 36 24.5C36 23.25 35.5625 22.1875 34.6875 21.3125C33.8125 20.4375 32.75 20 31.5 20H25.5V17H31.5C33.575 17 35.344 17.7315 36.807 19.1945C38.27 20.6575 39.001 22.426 39 24.5C38.999 26.574 38.2675 28.343 36.8055 29.807C35.3435 31.271 33.575 32.002 31.5 32H25.5Z" fill="#39F2AE"/>
</svg>
