<svg width="48" height="48" viewBox="0 0 48 48" fill="none" xmlns="http://www.w3.org/2000/svg">
<path d="M17.3125 19.1875C17.4375 19.3125 17.5833 19.375 17.75 19.375C17.9167 19.375 18.0625 19.3125 18.1875 19.1875L19.8125 17.5625C19.9375 17.4375 20 17.2917 20 17.125C20 16.9583 19.9375 16.8125 19.8125 16.6875L18.1875 15.0625C18.0625 14.9375 17.9167 14.875 17.75 14.875C17.5833 14.875 17.4375 14.9375 17.3125 15.0625L15.6875 16.6875C15.5625 16.8125 15.5 16.9583 15.5 17.125C15.5 17.2917 15.5625 17.4375 15.6875 17.5625L17.3125 19.1875ZM14 26.5C13.3125 26.5 12.7242 26.2554 12.235 25.7663C11.7458 25.2771 11.5008 24.6883 11.5 24V12.75C11.5 12.0625 11.745 11.4742 12.235 10.985C12.725 10.4958 13.3133 10.2508 14 10.25H34C34.6875 10.25 35.2763 10.495 35.7663 10.985C36.2563 11.475 36.5008 12.0633 36.5 12.75V24C36.5 24.6875 36.2554 25.2762 35.7663 25.7663C35.2771 26.2563 34.6883 26.5008 34 26.5H31.4688C31.1146 26.5 30.8229 26.38 30.5938 26.14C30.3646 25.9 30.25 25.6033 30.25 25.25C30.25 24.8967 30.37 24.6 30.61 24.36C30.85 24.12 31.1467 24 31.5 24H34V12.75H14V24H16.5C16.8542 24 17.1512 24.12 17.3912 24.36C17.6312 24.6 17.7508 24.8967 17.75 25.25C17.7492 25.6033 17.6292 25.9004 17.39 26.1413C17.1508 26.3821 16.8542 26.5017 16.5 26.5H14ZM29.625 17.75C30.1458 17.75 30.5887 17.5679 30.9538 17.2038C31.3188 16.8396 31.5008 16.3967 31.5 15.875C31.4992 15.3533 31.3171 14.9108 30.9538 14.5475C30.5904 14.1842 30.1475 14.0017 29.625 14C29.1025 13.9983 28.66 14.1808 28.2975 14.5475C27.935 14.9142 27.7525 15.3567 27.75 15.875C27.7475 16.3933 27.93 16.8363 28.2975 17.2038C28.665 17.5713 29.1075 17.7533 29.625 17.75ZM16.5 37.75C16.1458 37.75 15.8492 37.63 15.61 37.39C15.3708 37.15 15.2508 36.8533 15.25 36.5V35.125C15.25 34.3958 15.4533 33.7188 15.86 33.0938C16.2667 32.4688 16.8029 32 17.4688 31.6875C18.4896 31.2083 19.5521 30.8492 20.6562 30.61C21.7604 30.3708 22.875 30.2508 24 30.25C25.125 30.2492 26.2396 30.3692 27.3438 30.61C28.4479 30.8508 29.5104 31.21 30.5312 31.6875C31.1979 32 31.7346 32.4688 32.1413 33.0938C32.5479 33.7188 32.7508 34.3958 32.75 35.125V36.5C32.75 36.8542 32.6304 37.1512 32.3912 37.3912C32.1521 37.6312 31.855 37.7508 31.5 37.75H16.5ZM17.75 35.25H30.25V35.125C30.25 34.875 30.1771 34.6458 30.0312 34.4375C29.8854 34.2292 29.6979 34.0729 29.4688 33.9688C28.5938 33.5729 27.6979 33.2708 26.7812 33.0625C25.8646 32.8542 24.9375 32.75 24 32.75C23.0625 32.75 22.1354 32.8542 21.2188 33.0625C20.3021 33.2708 19.4062 33.5729 18.5312 33.9688C18.3021 34.0729 18.1146 34.2292 17.9688 34.4375C17.8229 34.6458 17.75 34.875 17.75 35.125V35.25ZM24 29C22.7917 29 21.7604 28.5729 20.9062 27.7188C20.0521 26.8646 19.625 25.8333 19.625 24.625C19.625 23.4167 20.0521 22.3854 20.9062 21.5312C21.7604 20.6771 22.7917 20.25 24 20.25C25.2083 20.25 26.2396 20.6771 27.0938 21.5312C27.9479 22.3854 28.375 23.4167 28.375 24.625C28.375 25.8333 27.9479 26.8646 27.0938 27.7188C26.2396 28.5729 25.2083 29 24 29ZM24 26.5C24.5208 26.5 24.9637 26.3179 25.3287 25.9537C25.6937 25.5896 25.8758 25.1467 25.875 24.625C25.8742 24.1033 25.6921 23.6608 25.3287 23.2975C24.9654 22.9342 24.5225 22.7517 24 22.75C23.4775 22.7483 23.035 22.9308 22.6725 23.2975C22.31 23.6642 22.1275 24.1067 22.125 24.625C22.1225 25.1433 22.305 25.5862 22.6725 25.9537C23.04 26.3212 23.4825 26.5033 24 26.5Z" fill="#39F2AE"/>
</svg>
