<svg width="24" height="24" viewBox="0 0 24 24" fill="none" xmlns="http://www.w3.org/2000/svg">
<mask id="mask0_617_20161" style="mask-type:alpha" maskUnits="userSpaceOnUse" x="0" y="0" width="24" height="24">
<rect width="24" height="24" fill="#D9D9D9"/>
</mask>
<g mask="url(#mask0_617_20161)">
<path d="M8.63101 19.4647C8.32565 19.4647 8.06078 19.3526 7.8364 19.1283C7.61213 18.9039 7.5 18.6391 7.5 18.3337V5.66714C7.5 5.36178 7.61213 5.09692 7.8364 4.87253C8.06078 4.64827 8.32565 4.53613 8.63101 4.53613H15.869C16.1743 4.53613 16.4392 4.64827 16.6636 4.87253C16.8879 5.09692 17 5.36178 17 5.66714V18.3337C17 18.6391 16.8879 18.9039 16.6636 19.1283C16.4392 19.3526 16.1743 19.4647 15.869 19.4647H8.63101ZM8.63101 16.6373V18.3337H15.869V16.6373H8.63101ZM12.252 18.0511C12.4127 18.0511 12.5468 17.9967 12.6543 17.8879C12.7617 17.7791 12.8154 17.6443 12.8154 17.4836C12.8154 17.3228 12.7611 17.1887 12.6524 17.0812C12.5436 16.9738 12.4088 16.9201 12.248 16.9201C12.0873 16.9201 11.9532 16.9745 11.8457 17.0833C11.7383 17.1919 11.6846 17.3267 11.6846 17.4875C11.6846 17.6483 11.7389 17.7825 11.8476 17.8899C11.9564 17.9974 12.0912 18.0511 12.252 18.0511ZM8.63101 15.5064H15.869V7.36357H8.63101V15.5064ZM8.63101 6.23256H15.869V5.66714H8.63101V6.23256Z" fill="#39F2AE"/>
</g>
</svg>
