<svg width="48" height="48" viewBox="0 0 48 48" fill="none" xmlns="http://www.w3.org/2000/svg">
<path d="M16.5 32V29H25.5C25.15 28.575 24.869 28.1125 24.657 27.6125C24.445 27.1125 24.276 26.575 24.15 26H19.5V23H24.15C24.275 22.425 24.444 21.8875 24.657 21.3875C24.87 20.8875 25.151 20.425 25.5 20H10.5V17H31.5C33.575 17 35.344 17.7315 36.807 19.1945C38.27 20.6575 39.001 22.426 39 24.5C38.999 26.574 38.2675 28.343 36.8055 29.807C35.3435 31.271 33.575 32.002 31.5 32H16.5ZM31.5 29C32.75 29 33.8125 28.5625 34.6875 27.6875C35.5625 26.8125 36 25.75 36 24.5C36 23.25 35.5625 22.1875 34.6875 21.3125C33.8125 20.4375 32.75 20 31.5 20C30.25 20 29.1875 20.4375 28.3125 21.3125C27.4375 22.1875 27 23.25 27 24.5C27 25.75 27.4375 26.8125 28.3125 27.6875C29.1875 28.5625 30.25 29 31.5 29ZM9 26V23H18V26H9ZM10.5 32V29H15V32H10.5Z" fill="#39F2AE"/>
</svg>
