<svg width="48" height="48" viewBox="0 0 48 48" fill="none" xmlns="http://www.w3.org/2000/svg">
<path d="M12.3 36H35.7C37.8374 33.3788 39.0016 30.1184 39 26.7579C39 18.6226 32.2875 12 24 12C15.7125 12 9 18.6226 9 26.7579C9 30.2629 10.2375 33.4543 12.3 36ZM22.125 15.6895C22.125 14.6749 22.9688 13.8447 24 13.8447C25.0312 13.8447 25.875 14.6749 25.875 15.6895C25.875 16.7225 25.0312 17.5342 24 17.5342C22.9688 17.5342 22.125 16.7225 22.125 15.6895ZM12.75 19.3789C12.75 18.3643 13.5938 17.5342 14.625 17.5342C15.6562 17.5342 16.5 18.3643 16.5 19.3789C16.5 20.412 15.6562 21.2237 14.625 21.2237C13.5938 21.2237 12.75 20.412 12.75 19.3789ZM21.225 25.651C22.8 24.1199 33.4312 19.1945 33.4312 19.1945C33.4312 19.1945 28.4438 29.6726 26.8875 31.2037C25.3125 32.7533 22.8 32.7533 21.225 31.2037C20.4773 30.467 20.0574 29.4684 20.0574 28.4274C20.0574 27.3863 20.4773 26.3877 21.225 25.651ZM10.875 28.6026C10.875 27.588 11.7188 26.7579 12.75 26.7579C13.7812 26.7579 14.625 27.588 14.625 28.6026C14.625 29.6357 13.7812 30.4473 12.75 30.4473C11.7188 30.4473 10.875 29.6357 10.875 28.6026ZM22.125 28.6026C22.125 27.588 22.9688 26.7579 24 26.7579C25.0312 26.7579 25.875 27.588 25.875 28.6026C25.875 29.6357 25.0312 30.4473 24 30.4473C22.9688 30.4473 22.125 29.6357 22.125 28.6026ZM33.375 28.6026C33.375 27.588 34.2188 26.7579 35.25 26.7579C36.2812 26.7579 37.125 27.588 37.125 28.6026C37.125 29.6357 36.2812 30.4473 35.25 30.4473C34.2188 30.4473 33.375 29.6357 33.375 28.6026Z" fill="#39F2AE"/>
</svg>
