<svg width="48" height="48" viewBox="0 0 48 48" fill="none" xmlns="http://www.w3.org/2000/svg">
<path d="M37.9991 24C37.9991 23.6559 37.9315 23.315 37.7999 22.9971C37.6682 22.6791 37.4749 22.3899 37.2315 22.1465L34.7071 19.624C34.3927 19.3099 34.1681 18.9173 34.0557 18.4873C33.9434 18.0572 33.9477 17.6046 34.0684 17.1768C34.1891 16.7489 34.4217 16.3608 34.7423 16.0527C35.0628 15.7448 35.4594 15.5274 35.8917 15.4238C36.3669 15.3098 36.8029 15.0711 37.1553 14.7324C37.5077 14.3937 37.7638 13.9675 37.8965 13.4971C38.0293 13.0266 38.0345 12.5287 37.9112 12.0557C37.7878 11.5829 37.5408 11.1513 37.1954 10.8057C36.8499 10.46 36.4182 10.2124 35.9454 10.0889C35.4725 9.96537 34.9744 9.97091 34.504 10.1035C34.0337 10.2362 33.6073 10.4916 33.2686 10.8438C32.9299 11.196 32.6914 11.6322 32.5772 12.1074C32.4737 12.5397 32.2562 12.9363 31.9483 13.2568C31.6403 13.5775 31.2522 13.8099 30.8243 13.9307C30.3964 14.0514 29.9439 14.0557 29.5137 13.9434C29.1373 13.845 28.7896 13.6607 28.4981 13.4053L28.377 13.292L25.8536 10.7676C25.6102 10.5242 25.321 10.3309 25.003 10.1992C24.6851 10.0675 24.3442 10 24.0001 10C23.6559 10 23.3151 10.0675 22.9971 10.1992C22.6792 10.3309 22.3899 10.5242 22.1465 10.7676L19.6221 13.291C19.5593 13.3539 19.5147 13.4325 19.4923 13.5186C19.4698 13.6045 19.4701 13.6948 19.4942 13.7803C19.5184 13.8659 19.5648 13.9443 19.629 14.0059C19.6931 14.0674 19.773 14.1102 19.8594 14.1309L20.1641 14.2148C20.8667 14.4337 21.5104 14.8133 22.043 15.3252C22.6517 15.9103 23.094 16.6474 23.3233 17.46C23.5526 18.2724 23.5607 19.1314 23.3477 19.9482C23.1347 20.7653 22.7073 21.5113 22.1104 22.1084C21.5137 22.7053 20.7688 23.1324 19.9522 23.3457C19.1353 23.559 18.2756 23.5513 17.463 23.3223C16.6504 23.0932 15.9134 22.6515 15.3282 22.043C14.7429 21.4344 14.3311 20.6804 14.1339 19.8594L14.1329 19.8584C14.1122 19.7722 14.0693 19.6929 14.0079 19.6289C13.9464 19.5649 13.8686 19.5183 13.7833 19.4941C13.6977 19.47 13.6066 19.4687 13.5206 19.4912C13.4562 19.508 13.3963 19.538 13.3438 19.5781L13.293 19.6221L10.7686 22.1465C10.5253 22.3899 10.332 22.6791 10.2003 22.9971C10.0686 23.315 10.001 23.6559 10.001 24C10.001 24.3441 10.0686 24.685 10.2003 25.0029C10.332 25.3209 10.5253 25.6101 10.7686 25.8535L13.293 28.376C13.6075 28.6901 13.832 29.0827 13.9444 29.5127C14.0567 29.9429 14.0524 30.3954 13.9317 30.8232C13.811 31.2511 13.5785 31.6392 13.2579 31.9473C12.9372 32.2553 12.5399 32.4717 12.1075 32.5752C11.6325 32.6893 11.197 32.929 10.8448 33.2676C10.4924 33.6063 10.2364 34.0325 10.1036 34.5029C9.97081 34.9734 9.96559 35.4713 10.0889 35.9443C10.2123 36.4171 10.4593 36.8487 10.8048 37.1943C11.1503 37.54 11.5819 37.7876 12.0548 37.9111C12.5277 38.0346 13.0257 38.0291 13.4962 37.8965C13.9664 37.7638 14.3928 37.5084 14.7315 37.1562C15.0703 36.804 15.3087 36.3678 15.4229 35.8926C15.5264 35.4603 15.7439 35.0637 16.0518 34.7432C16.3598 34.4225 16.7479 34.1901 17.1758 34.0693C17.6037 33.9486 18.0562 33.9443 18.4864 34.0566C18.9164 34.169 19.309 34.3935 19.6231 34.708L22.1465 37.2324C22.3899 37.4758 22.6792 37.6691 22.9971 37.8008C23.3151 37.9325 23.6559 38 24.0001 38C24.3442 38 24.6851 37.9325 25.003 37.8008C25.3209 37.6691 25.6102 37.4758 25.8536 37.2324L28.378 34.709L28.4219 34.6592C28.4622 34.6066 28.491 34.546 28.5079 34.4814C28.5303 34.3955 28.53 34.3052 28.5059 34.2197C28.4818 34.1341 28.4353 34.0557 28.3712 33.9941C28.3231 33.948 28.266 33.9125 28.2042 33.8887L28.1407 33.8691C27.3198 33.6722 26.5658 33.2598 25.9571 32.6748C25.3484 32.0897 24.9061 31.3526 24.6768 30.54C24.4476 29.7276 24.4395 28.8686 24.6524 28.0518C24.8654 27.2347 25.2928 26.4887 25.8897 25.8916C26.4864 25.2947 27.2313 24.8676 28.0479 24.6543C28.8648 24.441 29.7245 24.4487 30.5372 24.6777C31.3498 24.9068 32.0867 25.3485 32.6719 25.957C33.184 26.4895 33.5632 27.1334 33.7823 27.8359L33.8663 28.1406L33.8673 28.1416C33.888 28.2278 33.9309 28.3071 33.9923 28.3711C34.0537 28.4351 34.1315 28.4817 34.2169 28.5059C34.3024 28.53 34.3935 28.5313 34.4796 28.5088C34.5655 28.4863 34.6443 28.4408 34.7071 28.3779L37.2315 25.8535C37.4749 25.6101 37.6682 25.3209 37.7999 25.0029C37.9315 24.685 37.9991 24.3441 37.9991 24ZM39.9991 24C39.9991 24.6068 39.8797 25.2079 39.6475 25.7686C39.4153 26.3292 39.0746 26.8385 38.6456 27.2676L36.1212 29.792C35.807 30.1064 35.4145 30.331 34.9844 30.4434C34.5543 30.5557 34.1018 30.5514 33.6739 30.4307C33.2461 30.3099 32.8578 30.0774 32.5499 29.7568C32.2421 29.4364 32.0255 29.0395 31.9219 28.6074C31.8078 28.1323 31.5692 27.696 31.2305 27.3438C30.8917 26.9914 30.4646 26.7361 29.9942 26.6035C29.5238 26.4709 29.0266 26.4654 28.5538 26.5889C28.0809 26.7124 27.6493 26.96 27.3038 27.3057C26.9583 27.6513 26.7113 28.0828 26.588 28.5557C26.4646 29.0287 26.4689 29.5266 26.6016 29.9971C26.7344 30.4674 26.9905 30.8937 27.3428 31.2324C27.6951 31.571 28.1314 31.8098 28.6065 31.9238L28.7667 31.9678C29.1368 32.0828 29.4763 32.2831 29.7569 32.5527C30.0773 32.8607 30.31 33.249 30.4307 33.6768C30.5513 34.1046 30.5557 34.5572 30.4434 34.9873C30.331 35.4174 30.1055 35.8099 29.7911 36.124L27.2676 38.6465C26.8386 39.0756 26.3292 39.4162 25.7686 39.6484C25.208 39.8807 24.6069 40 24.0001 40C23.3932 40 22.7921 39.8807 22.2315 39.6484C21.6709 39.4162 21.1615 39.0756 20.7325 38.6465L18.2081 36.1221C18.1452 36.0592 18.0665 36.0137 17.9805 35.9912C17.8946 35.9688 17.8043 35.97 17.7188 35.9941C17.6333 36.0183 17.5558 36.0648 17.4942 36.1289C17.4327 36.193 17.3889 36.272 17.3682 36.3584V36.3594C17.171 37.1804 16.7582 37.9344 16.1729 38.543C15.5877 39.1514 14.8507 39.5932 14.0381 39.8223C13.2256 40.0513 12.3667 40.059 11.5499 39.8457C10.733 39.6324 9.98756 39.2055 9.39069 38.6084C8.79378 38.0113 8.36642 37.2653 8.15338 36.4482C7.94044 35.6313 7.94951 34.7724 8.17877 33.96C8.40808 33.1474 8.8494 32.4103 9.45807 31.8252C10.0668 31.2401 10.8207 30.8278 11.6417 30.6309H11.6426C11.729 30.6101 11.8081 30.5664 11.8721 30.5049C11.9362 30.4433 11.9828 30.3658 12.0069 30.2803C12.031 30.1948 12.0322 30.1045 12.0098 30.0186C11.9874 29.9325 11.9419 29.8539 11.879 29.791L9.35456 27.2676C8.92548 26.8385 8.58482 26.3292 8.3526 25.7686C8.12038 25.2079 8.00104 24.6068 8.00104 24C8.00104 23.3932 8.12038 22.7921 8.3526 22.2314C8.58482 21.6708 8.92548 21.1615 9.35456 20.7324L11.879 18.208L12.0001 18.0947C12.2916 17.8394 12.6393 17.655 13.0157 17.5566C13.4459 17.4443 13.8984 17.4486 14.3262 17.5693C14.754 17.6901 15.1423 17.9226 15.4503 18.2432C15.758 18.5636 15.9747 18.9605 16.0782 19.3926L16.127 19.5684C16.2538 19.9751 16.4732 20.3479 16.7696 20.6562C17.1084 21.0086 17.5355 21.2639 18.0059 21.3965C18.4763 21.5291 18.9735 21.5346 19.4464 21.4111C19.9193 21.2876 20.3508 21.04 20.6964 20.6943C21.0418 20.3487 21.2888 19.9172 21.4122 19.4443C21.5355 18.9713 21.5313 18.4734 21.3985 18.0029C21.2657 17.5326 21.0096 17.1063 20.6573 16.7676C20.349 16.4712 19.9761 16.2517 19.5694 16.125L19.3936 16.0762C18.9612 15.9727 18.5639 15.7553 18.2432 15.4473C17.9228 15.1393 17.6901 14.751 17.5694 14.3232C17.4488 13.8954 17.4444 13.4428 17.5567 13.0127C17.6691 12.5826 17.8946 12.1901 18.209 11.876L20.7325 9.35352L20.8975 9.19727C21.2901 8.84146 21.741 8.55479 22.2315 8.35156C22.7921 8.11932 23.3932 8 24.0001 8C24.6069 8 25.208 8.11932 25.7686 8.35156C26.3292 8.58381 26.8386 8.92442 27.2676 9.35352L29.7921 11.8779L29.8419 11.9219C29.8945 11.9622 29.955 11.9919 30.0196 12.0088C30.1055 12.0312 30.1958 12.03 30.2813 12.0059C30.3669 11.9817 30.4443 11.9352 30.5059 11.8711C30.5675 11.807 30.6112 11.728 30.6319 11.6416V11.6406C30.8291 10.8196 31.242 10.0656 31.8272 9.45703C32.4124 8.84862 33.1495 8.40774 33.962 8.17871C34.7746 7.94966 35.6334 7.941 36.4503 8.1543C37.2671 8.3676 38.0126 8.79455 38.6094 9.3916C39.2063 9.98875 39.6337 10.7347 39.8467 11.5518C40.0597 12.3687 40.0506 13.2276 39.8214 14.04C39.5921 14.8526 39.1507 15.5897 38.5421 16.1748C37.9334 16.7599 37.1794 17.1722 36.3585 17.3691H36.3575C36.2712 17.3899 36.192 17.4336 36.128 17.4951C36.0639 17.5567 36.0174 17.6342 35.9932 17.7197C35.9691 17.8052 35.9679 17.8955 35.9903 17.9814C36.0128 18.0675 36.0583 18.1461 36.1212 18.209L38.6456 20.7324L38.8018 20.8975C39.1576 21.2901 39.4443 21.7409 39.6475 22.2314C39.8797 22.7921 39.9991 23.3932 39.9991 24Z" fill="#39F2AE"/>
</svg>
