<svg width="48" height="48" viewBox="0 0 48 48" fill="none" xmlns="http://www.w3.org/2000/svg">
<path d="M18.3333 29.4167L12.9167 24L18.3333 18.5833L20.0833 20.375L16.4583 24L20.0833 27.625L18.3333 29.4167ZM29.6667 29.4167L27.9167 27.625L31.5417 24L27.9167 20.375L29.6667 18.5833L35.0833 24L29.6667 29.4167ZM11.5 39C10.8333 39 10.25 38.75 9.75 38.25C9.25 37.75 9 37.1667 9 36.5V29.3333H11.5V36.5H18.6667V39H11.5ZM29.3333 39V36.5H36.5V29.3333H39V36.5C39 37.1667 38.75 37.75 38.25 38.25C37.75 38.75 37.1667 39 36.5 39H29.3333ZM9 18.6667V11.5C9 10.8333 9.25 10.25 9.75 9.75C10.25 9.25 10.8333 9 11.5 9H18.6667V11.5H11.5V18.6667H9ZM36.5 18.6667V11.5H29.3333V9H36.5C37.1667 9 37.75 9.25 38.25 9.75C38.75 10.25 39 10.8333 39 11.5V18.6667H36.5Z" fill="#39F2AE"/>
</svg>
