<svg width="48" height="48" viewBox="0 0 48 48" fill="none" xmlns="http://www.w3.org/2000/svg">
<path d="M17.3574 26.1428H25.9289V28.2856H17.3574V26.1428ZM17.3574 20.7856H30.2146V22.9285H17.3574V20.7856ZM17.3574 31.4999H22.7146V33.6428H17.3574V31.4999Z" fill="#39F2AE"/>
<path d="M33.4286 12.2143H30.2143V11.1429C30.2143 10.5745 29.9885 10.0295 29.5867 9.62763C29.1848 9.22576 28.6398 9 28.0714 9H19.5C18.9317 9 18.3866 9.22576 17.9848 9.62763C17.5829 10.0295 17.3571 10.5745 17.3571 11.1429V12.2143H14.1429C13.5745 12.2143 13.0295 12.4401 12.6276 12.8419C12.2258 13.2438 12 13.7888 12 14.3571V36.8571C12 37.4255 12.2258 37.9705 12.6276 38.3724C13.0295 38.7742 13.5745 39 14.1429 39H33.4286C33.9969 39 34.5419 38.7742 34.9438 38.3724C35.3457 37.9705 35.5714 37.4255 35.5714 36.8571V14.3571C35.5714 13.7888 35.3457 13.2438 34.9438 12.8419C34.5419 12.4401 33.9969 12.2143 33.4286 12.2143ZM19.5 11.1429H28.0714V15.4286H19.5V11.1429ZM33.4286 36.8571H14.1429V14.3571H17.3571V17.5714H30.2143V14.3571H33.4286V36.8571Z" fill="#39F2AE"/>
</svg>
