<svg width="24" height="24" viewBox="0 0 24 24" fill="none" xmlns="http://www.w3.org/2000/svg">
<path d="M7 7.625V13.875H10.125V11.375C10.125 11.0435 10.2567 10.7255 10.4911 10.4911C10.7255 10.2567 11.0435 10.125 11.375 10.125H14.5C14.8315 10.125 15.1495 10.2567 15.3839 10.4911C15.6183 10.7255 15.75 11.0435 15.75 11.375V13.875H17V7.625H7ZM4.5 16.375V15.125H7C6.66848 15.125 6.35054 14.9933 6.11612 14.7589C5.8817 14.5245 5.75 14.2065 5.75 13.875V7.625C5.75 7.29348 5.8817 6.97554 6.11612 6.74112C6.35054 6.5067 6.66848 6.375 7 6.375H17C17.3315 6.375 17.6495 6.5067 17.8839 6.74112C18.1183 6.97554 18.25 7.29348 18.25 7.625V13.875C18.25 14.2065 18.1183 14.5245 17.8839 14.7589C17.6495 14.9933 17.3315 15.125 17 15.125H19.5V16.375H15.75C15.75 16.7065 15.6183 17.0245 15.3839 17.2589C15.1495 17.4933 14.8315 17.625 14.5 17.625H11.375C11.0435 17.625 10.7255 17.4933 10.4911 17.2589C10.2567 17.0245 10.125 16.7065 10.125 16.375H4.5ZM11.6875 16.375C11.6046 16.375 11.5251 16.4079 11.4665 16.4665C11.4079 16.5251 11.375 16.6046 11.375 16.6875C11.375 16.7704 11.4079 16.8499 11.4665 16.9085C11.5251 16.9671 11.6046 17 11.6875 17C11.7704 17 11.8499 16.9671 11.9085 16.9085C11.9671 16.8499 12 16.7704 12 16.6875C12 16.6046 11.9671 16.5251 11.9085 16.4665C11.8499 16.4079 11.7704 16.375 11.6875 16.375ZM14.1875 16.375C14.1046 16.375 14.0251 16.4079 13.9665 16.4665C13.9079 16.5251 13.875 16.6046 13.875 16.6875C13.875 16.7704 13.9079 16.8499 13.9665 16.9085C14.0251 16.9671 14.1046 17 14.1875 17C14.2704 17 14.3499 16.9671 14.4085 16.9085C14.4671 16.8499 14.5 16.7704 14.5 16.6875C14.5 16.6046 14.4671 16.5251 14.4085 16.4665C14.3499 16.4079 14.2704 16.375 14.1875 16.375ZM12.625 16.375V17H13.25V16.375H12.625ZM11.375 11.375V15.75H14.5V11.375H11.375Z" fill="#39F2AE"/>
</svg>
