<svg width="48" height="48" viewBox="0 0 48 48" fill="none" xmlns="http://www.w3.org/2000/svg">
<mask id="mask0_648_10519" style="mask-type:alpha" maskUnits="userSpaceOnUse" x="0" y="0" width="48" height="48">
<rect width="48" height="48" fill="#D9D9D9"/>
</mask>
<g mask="url(#mask0_648_10519)">
<path d="M14.3874 20.9512L17.3056 22.1843C17.6548 21.4868 18.0164 20.8142 18.3906 20.1664C18.7647 19.5187 19.1762 18.871 19.6252 18.2233L17.5301 17.8123L14.3874 20.9512ZM19.7 24.0527L23.965 28.2753C25.0126 27.8767 26.1349 27.2664 27.3321 26.4443C28.5294 25.6222 29.6517 24.688 30.6993 23.6417C32.4452 21.8978 33.8108 19.9609 34.796 17.8309C35.7812 15.701 36.2114 13.7391 36.0867 11.9455C34.2909 11.8209 32.3205 12.2506 30.1755 13.2347C28.0305 14.2187 26.0851 15.5826 24.3391 17.3265C23.2916 18.3728 22.3563 19.4938 21.5332 20.6896C20.7101 21.8854 20.0991 23.0064 19.7 24.0527ZM26.3594 21.6238C25.7858 21.0508 25.4989 20.3471 25.4989 19.5125C25.4989 18.678 25.7858 17.9742 26.3594 17.4012C26.9331 16.8282 27.6439 16.5417 28.4919 16.5417C29.34 16.5417 30.0508 16.8282 30.6245 17.4012C31.1981 17.9742 31.4849 18.678 31.4849 19.5125C31.4849 20.3471 31.1981 21.0508 30.6245 21.6238C30.0508 22.1968 29.34 22.4833 28.4919 22.4833C27.6439 22.4833 26.9331 22.1968 26.3594 21.6238ZM27.0703 33.619L30.2129 30.4801L29.8014 28.3874C29.1529 28.8359 28.5044 29.2407 27.8559 29.6019C27.2074 29.9631 26.534 30.3181 25.8356 30.6669L27.0703 33.619ZM38.7804 9.21758C39.2543 12.2319 38.9612 15.1653 37.9012 18.0178C36.8412 20.8702 35.0142 23.5919 32.4203 26.1827L33.1685 29.8822C33.2683 30.3804 33.2433 30.8662 33.0937 31.3395C32.944 31.8129 32.6946 32.2239 32.3454 32.5727L26.0601 38.8505L22.9175 31.489L16.5199 25.099L9.14965 21.9601L15.3975 15.6823C15.7467 15.3335 16.1645 15.0844 16.6509 14.9349C17.1372 14.7854 17.6298 14.7605 18.1287 14.8602L21.8325 15.6075C24.4264 13.0167 27.1451 11.1856 29.9884 10.1144C32.8318 9.04319 35.7624 8.74425 38.7804 9.21758ZM11.8059 29.8448C12.6789 28.9729 13.7452 28.5307 15.0047 28.5182C16.2643 28.5058 17.3305 28.9355 18.2035 29.8074C19.0764 30.6794 19.5067 31.7444 19.4942 33.0024C19.4818 34.2605 19.039 35.3255 18.1661 36.1974C17.5425 36.8202 16.5012 37.3558 15.0421 37.8042C13.583 38.2526 11.569 38.6512 9 39C9.34918 36.4341 9.74825 34.4224 10.1972 32.965C10.6462 31.5077 11.1824 30.4676 11.8059 29.8448ZM13.9385 31.9374C13.689 32.1865 13.4396 32.6412 13.1902 33.3014C12.9408 33.9615 12.7662 34.6279 12.6664 35.3006C13.3399 35.2009 14.007 35.0327 14.668 34.7961C15.329 34.5594 15.7841 34.3165 16.0336 34.0674C16.3329 33.7685 16.495 33.4072 16.5199 32.9837C16.5449 32.5602 16.4077 32.199 16.1084 31.9001C15.8091 31.6011 15.4474 31.4579 15.0234 31.4703C14.5994 31.4828 14.2378 31.6385 13.9385 31.9374Z" fill="#39F2AE"/>
</g>
</svg>
