<svg width="24" height="24" viewBox="0 0 24 24" fill="none" xmlns="http://www.w3.org/2000/svg">
<path d="M10.6202 10.4211C11.0006 10.4211 11.3257 10.2856 11.5954 10.0147C11.8651 9.74375 12 9.41809 12 9.0377C12 8.6573 11.8645 8.33224 11.5936 8.0625C11.3227 7.79276 10.997 7.65789 10.6166 7.65789C10.2363 7.65789 9.91118 7.79336 9.64145 8.06428C9.37171 8.3352 9.23684 8.66086 9.23684 9.04125C9.23684 9.42165 9.3723 9.74671 9.64322 10.0164C9.91414 10.2862 10.2398 10.4211 10.6202 10.4211ZM10.6283 13.5789C11.1349 13.5789 11.6264 13.4745 12.1028 13.2655C12.5793 13.0567 12.9924 12.7599 13.3421 12.375C12.9211 12.1118 12.4803 11.9178 12.0197 11.7928C11.5592 11.6678 11.0921 11.6053 10.6184 11.6053C10.1447 11.6053 9.67763 11.6678 9.21711 11.7928C8.75658 11.9178 8.31579 12.1118 7.89474 12.375C8.26316 12.7566 8.68421 13.0526 9.15789 13.2632C9.63158 13.4737 10.1217 13.5789 10.6283 13.5789ZM18.6711 19.5L14.5066 15.3355C13.9803 15.7566 13.3783 16.0954 12.7007 16.352C12.023 16.6086 11.3293 16.7368 10.6196 16.7368C8.92145 16.7368 7.47697 16.1414 6.28618 14.9507C5.09539 13.7599 4.5 12.3158 4.5 10.6184C4.5 8.92105 5.09539 7.47697 6.28618 6.28618C7.47697 5.09539 8.92105 4.5 10.6184 4.5C12.3158 4.5 13.7599 5.09539 14.9507 6.28618C16.1414 7.47697 16.7368 8.92145 16.7368 10.6196C16.7368 11.3293 16.6086 12.023 16.352 12.7007C16.0954 13.3783 15.7566 13.9803 15.3355 14.5066L19.5 18.6711L18.6711 19.5ZM10.6283 15.5526C11.9901 15.5526 13.1513 15.0691 14.1118 14.102C15.0724 13.1349 15.5526 11.9704 15.5526 10.6086C15.5526 9.24671 15.0729 8.08553 14.1134 7.125C13.1541 6.16447 11.9891 5.68421 10.6184 5.68421C9.26316 5.68421 8.10197 6.16395 7.13487 7.12342C6.16776 8.08276 5.68421 9.24776 5.68421 10.6184C5.68421 11.9737 6.16776 13.1349 7.13487 14.102C8.10197 15.0691 9.26645 15.5526 10.6283 15.5526Z" fill="#39F2AE"/>
</svg>
