<svg width="24" height="24" viewBox="0 0 24 24" fill="none" xmlns="http://www.w3.org/2000/svg">
<path d="M7.3335 14.3335V12.6665C7.33345 12.5782 7.29821 12.4936 7.23584 12.4312C7.17333 12.3686 7.08841 12.3335 7 12.3335H5.3335C4.97991 12.3335 4.64067 12.1929 4.39062 11.9429C4.17184 11.7241 4.03666 11.4371 4.00635 11.1318L4 11V9.3335C4 8.97987 4.14058 8.64067 4.39062 8.39062C4.64067 8.14058 4.97987 8 5.3335 8H7.8335C8.10956 8.00009 8.3335 8.22391 8.3335 8.5C8.3335 8.77609 8.10956 8.99991 7.8335 9H5.3335C5.24509 9 5.16017 9.03514 5.09766 9.09766C5.03514 9.16017 5 9.24509 5 9.3335V11L5.00635 11.0654C5.01916 11.1295 5.05079 11.189 5.09766 11.2358C5.16016 11.2983 5.24513 11.3335 5.3335 11.3335H7C7.35358 11.3335 7.69283 11.4736 7.94287 11.7236C8.19288 11.9736 8.33345 12.3129 8.3335 12.6665V14.3335C8.33345 14.6871 8.19288 15.0264 7.94287 15.2764C7.69283 15.5264 7.35358 15.6665 7 15.6665H4.5C4.22386 15.6665 4 15.4426 4 15.1665C4.00009 14.8904 4.22391 14.6665 4.5 14.6665H7C7.08841 14.6665 7.17333 14.6314 7.23584 14.5688C7.29821 14.5064 7.33345 14.4218 7.3335 14.3335ZM13.6665 8C13.9426 8 14.1665 8.22386 14.1665 8.5C14.1665 8.77614 13.9426 9 13.6665 9H10.8335V11.4609C10.9219 11.3818 11.0385 11.3335 11.1665 11.3335H12.8335C13.1096 11.3336 13.3335 11.5574 13.3335 11.8335C13.3334 12.1095 13.1095 12.3334 12.8335 12.3335H11.1665C11.0383 12.3335 10.922 12.2844 10.8335 12.2051V14.6665H13.6665L13.7178 14.6694C13.9698 14.695 14.1664 14.9077 14.1665 15.1665C14.1665 15.4254 13.9699 15.6385 13.7178 15.6641L13.6665 15.6665H10.3335C10.0574 15.6665 9.8335 15.4426 9.8335 15.1665V8.5L9.83594 8.44873C9.86161 8.19667 10.0747 8 10.3335 8H13.6665ZM19 9.3335C19 9.24509 18.9649 9.16017 18.9023 9.09766C18.8554 9.05075 18.796 9.01914 18.7319 9.00635L18.6665 9H17C16.9116 9 16.8267 9.03514 16.7642 9.09766C16.7017 9.16016 16.6665 9.24513 16.6665 9.3335V14.3335C16.6665 14.4218 16.7018 14.5064 16.7642 14.5688C16.8267 14.6314 16.9116 14.6665 17 14.6665H18.6665C18.7549 14.6665 18.8398 14.6314 18.9023 14.5688C18.9648 14.5064 19 14.4218 19 14.3335V9.3335ZM20 14.3335C20 14.6871 19.8594 15.0264 19.6094 15.2764C19.3593 15.5263 19.02 15.6665 18.6665 15.6665H17C16.6464 15.6665 16.3072 15.5264 16.0571 15.2764C15.8071 15.0264 15.6665 14.6871 15.6665 14.3335V9.3335C15.6665 8.97991 15.8071 8.64067 16.0571 8.39062C16.3072 8.14058 16.6464 8 17 8H18.6665L18.7983 8.00635C19.1036 8.03663 19.3906 8.1718 19.6094 8.39062C19.8594 8.64067 20 8.97987 20 9.3335V14.3335Z" fill="#39F2AE"/>
</svg>
