<svg width="48" height="48" viewBox="0 0 48 48" fill="none" xmlns="http://www.w3.org/2000/svg">
<path d="M38.5994 33.5518L26.1634 21.1474C27.4371 17.9542 26.8071 14.1878 24.1912 11.5951C21.0411 8.45643 16.1379 8.16986 12.6454 10.7081L17.9047 15.9618L15.9599 17.8587L10.7143 12.6595C8.16683 16.1256 8.45445 21.0246 11.6045 24.1495C14.152 26.6877 17.8636 27.3564 21.0411 26.1692L33.5182 38.6008C34.0523 39.1331 34.9152 39.1331 35.4493 38.6008L38.5994 35.4622C39.1335 34.9164 39.1335 34.084 38.5994 33.5518ZM34.4906 35.7215L21.5341 22.8122C20.6987 23.4263 19.7674 23.7947 18.7949 23.9312C16.9323 24.2041 14.9738 23.6446 13.5494 22.2254C12.2482 20.9427 11.6456 19.2233 11.7415 17.5311L15.9736 21.7478L21.7807 15.9618L17.5486 11.7179C19.2743 11.6496 20.9589 12.2501 22.26 13.5328C22.9605 14.2297 23.4809 15.0853 23.7767 16.0265C24.0725 16.9677 24.1348 17.9663 23.9583 18.9367C23.7874 19.9146 23.373 20.8342 22.7531 21.6114L35.7095 34.507L34.4906 35.7215Z" fill="#39F2AE"/>
</svg>
