<svg width="24" height="24" viewBox="0 0 24 24" fill="none" xmlns="http://www.w3.org/2000/svg">
<path d="M6.69683 4.5L6.75898 4.50266C7.06493 4.53038 7.31788 4.76145 7.36933 5.06952L7.65342 6.77274H18.8182C19.0374 6.77274 19.2432 6.87814 19.3713 7.05594C19.4995 7.23374 19.5343 7.46238 19.465 7.67029L17.1923 14.4885C17.0994 14.7668 16.8389 14.9546 16.5455 14.9546H8.21229C7.89983 14.9546 7.63029 14.7428 7.55266 14.4454L7.53979 14.3851L6.11933 5.86364H5.18182C4.80526 5.86364 4.5 5.55838 4.5 5.18182C4.5 4.80526 4.80526 4.5 5.18182 4.5H6.69683ZM8.78979 13.5909H16.0541L17.8723 8.13638H7.8807L8.78979 13.5909Z" fill="#39F2AE"/>
<path d="M9.04528 18.0606C9.04528 18.0189 9.01159 17.9848 8.96982 17.9847C8.92798 17.9847 8.89392 18.0188 8.89392 18.0606C8.894 18.1024 8.92803 18.1361 8.96982 18.1361C9.01154 18.136 9.0452 18.1024 9.04528 18.0606ZM10.4089 18.0606C10.4088 18.8555 9.76466 19.4997 8.96982 19.4997C8.17491 19.4997 7.53035 18.8555 7.53027 18.0606C7.53027 17.2657 8.17486 16.6211 8.96982 16.6211C9.76471 16.6212 10.4089 17.2657 10.4089 18.0606Z" fill="#39F2AE"/>
<path d="M15.8636 18.0606C15.8636 18.0189 15.83 17.9848 15.7882 17.9847C15.7463 17.9847 15.7123 18.0188 15.7123 18.0606C15.7124 18.1024 15.7464 18.1361 15.7882 18.1361C15.8299 18.136 15.8636 18.1024 15.8636 18.0606ZM17.2273 18.0606C17.2272 18.8555 16.583 19.4997 15.7882 19.4997C14.9933 19.4997 14.3487 18.8555 14.3486 18.0606C14.3486 17.2657 14.9932 16.6211 15.7882 16.6211C16.5831 16.6212 17.2273 17.2657 17.2273 18.0606Z" fill="#39F2AE"/>
</svg>
