<svg width="48" height="48" viewBox="0 0 48 48" fill="none" xmlns="http://www.w3.org/2000/svg">
<g clip-path="url(#clip0_617_9527)">
<path d="M37.7754 15C37.9241 15 38.0664 15.0277 38.1982 15.0762C38.2146 15.0822 38.231 15.088 38.2471 15.0947C38.2573 15.099 38.2673 15.1039 38.2773 15.1084C38.3022 15.1196 38.3273 15.1306 38.3516 15.1436C38.4098 15.1746 38.4645 15.2112 38.5166 15.251C38.5598 15.2839 38.6022 15.319 38.6416 15.3584C38.6807 15.3975 38.7153 15.4397 38.748 15.4824C38.7881 15.5349 38.8251 15.5898 38.8564 15.6484C38.8634 15.6614 38.8686 15.6753 38.875 15.6885C38.9542 15.8506 39 16.0321 39 16.2246V22.3467C39 23.0229 38.4517 23.5713 37.7754 23.5713C37.0993 23.5711 36.5508 23.0228 36.5508 22.3467V19.1807L26.3965 29.335C25.9183 29.8132 25.1432 29.8132 24.665 29.335L19.4082 24.0781L11.0898 32.3965C10.6116 32.8744 9.8365 32.8746 9.3584 32.3965C8.8804 31.9184 8.88053 31.1432 9.3584 30.665L18.542 21.4814L18.6357 21.3975C19.1167 21.0052 19.8261 21.0331 20.2744 21.4814L25.5303 26.7383L34.8193 17.4492H31.6533C30.9771 17.4492 30.4288 16.9008 30.4287 16.2246C30.4287 15.5483 30.9771 15 31.6533 15H37.7754Z" fill="#39F2AE"/>
</g>
<defs>
<clipPath id="clip0_617_9527">
<rect width="30" height="30" fill="white" transform="translate(9 9)"/>
</clipPath>
</defs>
</svg>
