<svg width="48" height="48" viewBox="0 0 48 48" fill="none" xmlns="http://www.w3.org/2000/svg">
<mask id="mask0_827_11002" style="mask-type:alpha" maskUnits="userSpaceOnUse" x="0" y="0" width="48" height="48">
<rect width="48" height="48" fill="#D9D9D9"/>
</mask>
<g mask="url(#mask0_827_11002)">
<path d="M30.8444 39L28.6667 36.7895L31.1167 34.2632L28.6667 31.7763L30.8444 29.5263L33.3333 32.0526L35.7833 29.5263L38 31.7763L35.5111 34.2632L38 36.7895L35.7833 39L33.3333 36.5132L30.8444 39ZM14.6667 35.8421C15.1074 35.8421 15.4769 35.6908 15.775 35.3882C16.0731 35.0855 16.2222 34.7105 16.2222 34.2632C16.2222 33.8158 16.0731 33.4408 15.775 33.1382C15.4769 32.8355 15.1074 32.6842 14.6667 32.6842C14.2259 32.6842 13.8565 32.8355 13.5583 33.1382C13.2602 33.4408 13.1111 33.8158 13.1111 34.2632C13.1111 34.7105 13.2602 35.0855 13.5583 35.3882C13.8565 35.6908 14.2259 35.8421 14.6667 35.8421ZM14.6667 39C13.3704 39 12.2685 38.5395 11.3611 37.6184C10.4537 36.6974 10 35.5789 10 34.2632C10 32.9474 10.4537 31.8289 11.3611 30.9079C12.2685 29.9868 13.3704 29.5263 14.6667 29.5263C15.6259 29.5263 16.5009 29.7961 17.2917 30.3355C18.0824 30.875 18.6593 31.6053 19.0222 32.5263C20.0333 32.2368 20.8565 31.6711 21.4917 30.8289C22.1269 29.9868 22.4444 29.0263 22.4444 27.9474V21.6316C22.4444 19.4474 23.2028 17.5855 24.7194 16.0461C26.2361 14.5066 28.0704 13.7368 30.2222 13.7368H32.0111L29.5611 11.25L31.7778 9L38 15.3158L31.7778 21.6316L29.5611 19.4211L32.0111 16.8947H30.2222C28.9259 16.8947 27.8241 17.3553 26.9167 18.2763C26.0093 19.1974 25.5556 20.3158 25.5556 21.6316V27.9474C25.5556 29.8684 24.9463 31.5592 23.7278 33.0197C22.5093 34.4803 20.9667 35.3816 19.1 35.7237C18.7889 36.6974 18.225 37.4868 17.4083 38.0921C16.5917 38.6974 15.6778 39 14.6667 39ZM12.1778 20.0526L10 17.8421L12.45 15.3158L10 12.8289L12.1778 10.5789L14.6667 13.1053L17.1167 10.5789L19.3333 12.8289L16.8444 15.3158L19.3333 17.8421L17.1167 20.0526L14.6667 17.5658L12.1778 20.0526Z" fill="#39F2AE"/>
</g>
</svg>
