<svg width="48" height="48" viewBox="0 0 48 48" fill="none" xmlns="http://www.w3.org/2000/svg">
<path d="M11.8571 34.1111C11.0714 34.1111 10.399 33.8285 9.84 33.2632C9.28095 32.698 9.00095 32.0176 9 31.2222V13.8889C9 13.0944 9.28 12.4146 9.84 11.8493C10.4 11.2841 11.0724 11.001 11.8571 11H34.7143C35.5 11 36.1729 11.2831 36.7329 11.8493C37.2929 12.4156 37.5724 13.0954 37.5714 13.8889V19.6667H24.7143V13.8889H11.8571V31.2222H20.4286V34.1111H11.8571ZM11.8571 31.2222V18.2222V19.6667V13.8889V31.2222ZM37 37L33.1429 33.1C32.619 33.413 32.0714 33.66 31.5 33.841C30.9286 34.022 30.3333 34.1121 29.7143 34.1111C27.9286 34.1111 26.411 33.4794 25.1614 32.216C23.9119 30.9526 23.2867 29.4176 23.2857 27.6111C23.2848 25.8046 23.91 24.2701 25.1614 23.0077C26.4129 21.7452 27.9305 21.113 29.7143 21.1111C31.4981 21.1092 33.0162 21.7414 34.2686 23.0077C35.521 24.274 36.1457 25.8084 36.1429 27.6111C36.1429 28.237 36.0538 28.8389 35.8757 29.4167C35.6976 29.9944 35.4533 30.5481 35.1429 31.0778L39 34.9778L37 37ZM29.7143 31.2222C30.7143 31.2222 31.5595 30.8731 32.25 30.175C32.9405 29.4769 33.2857 28.6222 33.2857 27.6111C33.2857 26.6 32.9405 25.7454 32.25 25.0472C31.5595 24.3491 30.7143 24 29.7143 24C28.7143 24 27.869 24.3491 27.1786 25.0472C26.4881 25.7454 26.1429 26.6 26.1429 27.6111C26.1429 28.6222 26.4881 29.4769 27.1786 30.175C27.869 30.8731 28.7143 31.2222 29.7143 31.2222Z" fill="#39F2AE"/>
</svg>
