<svg width="48" height="48" viewBox="0 0 48 48" fill="none" xmlns="http://www.w3.org/2000/svg">
<path d="M28.1657 13C25.3639 13.0155 22.6759 14.1305 20.6615 16.1129C19.3839 15.5662 17.9933 15.3497 16.6136 15.4825C15.2339 15.6153 13.9078 16.0933 12.7535 16.874C11.5992 17.6547 10.6525 18.7139 9.99758 19.9572C9.3427 21.2005 9 22.5893 9 24C9 25.4108 9.3427 26.7996 9.99758 28.0429C10.6525 29.2862 11.5992 30.3454 12.7535 31.1261C13.9078 31.9068 15.2339 32.3848 16.6136 32.5176C17.9933 32.6504 19.3839 32.4338 20.6615 31.8872C21.9319 33.1444 23.4865 34.0643 25.1884 34.566C26.8903 35.0676 28.6873 35.1356 30.4211 34.7638C32.1548 34.3921 33.7722 33.5921 35.1308 32.4343C36.4893 31.2765 37.5473 29.7964 38.2117 28.1244C38.876 26.4523 39.1262 24.6397 38.9404 22.846C38.7545 21.0524 38.1382 19.3328 37.1458 17.8386C36.1533 16.3445 34.8152 15.1217 33.2492 14.278C31.6833 13.4342 29.9375 12.9953 28.1657 13ZM28.1657 32.5556C25.9349 32.5556 23.7952 31.6548 22.216 30.0509C20.6368 28.447 19.7472 26.2709 19.7422 24H17.3408C17.3409 26.0758 17.9199 28.1089 19.0105 29.8629C18.4738 30.0211 17.9184 30.1046 17.3596 30.1111C15.7674 30.1111 14.2404 29.4673 13.1146 28.3212C11.9887 27.1752 11.3562 25.6208 11.3562 24C11.3562 22.3793 11.9887 20.8249 13.1146 19.6788C14.2404 18.5328 15.7674 17.8889 17.3596 17.8889C18.9518 17.8889 20.4788 18.5328 21.6046 19.6788C22.7305 20.8249 23.363 22.3793 23.363 24H25.8206C25.8211 22.7455 25.5469 21.5066 25.0179 20.3735C24.489 19.2404 23.7185 18.2416 22.7626 17.4497C23.7974 16.5647 25.0266 15.9467 26.3459 15.6482C27.6653 15.3498 29.0359 15.3796 30.3415 15.7352C31.6471 16.0907 32.8493 16.7616 33.8459 17.6908C34.8426 18.62 35.6045 19.7802 36.0669 21.073C36.5292 22.3657 36.6786 23.753 36.5021 25.117C36.3257 26.481 35.8287 27.7816 35.0533 28.9084C34.2779 30.0353 33.247 30.9552 32.048 31.5901C30.849 32.225 29.5172 32.5562 28.1657 32.5556Z" fill="#39F2AE"/>
</svg>
