<svg width="48" height="48" viewBox="0 0 48 48" fill="none" xmlns="http://www.w3.org/2000/svg">
<path d="M29.5125 31.2375L31.2 29.55L25.2375 23.55V16.0125H22.9875V24.45L29.5125 31.2375ZM24 39C21.95 39 20.0125 38.6062 18.1875 37.8187C16.3625 37.0312 14.7688 35.9562 13.4062 34.5938C12.0438 33.2313 10.9688 31.6375 10.1813 29.8125C9.39375 27.9875 9 26.05 9 24C9 21.95 9.39375 20.0125 10.1813 18.1875C10.9688 16.3625 12.0438 14.7688 13.4062 13.4062C14.7688 12.0438 16.3625 10.9688 18.1875 10.1813C20.0125 9.39375 21.95 9 24 9C26.05 9 27.9875 9.39375 29.8125 10.1813C31.6375 10.9688 33.2313 12.0438 34.5938 13.4062C35.9562 14.7688 37.0312 16.3625 37.8187 18.1875C38.6062 20.0125 39 21.95 39 24C39 26.05 38.6062 27.9875 37.8187 29.8125C37.0312 31.6375 35.9562 33.2313 34.5938 34.5938C33.2313 35.9562 31.6375 37.0312 29.8125 37.8187C27.9875 38.6062 26.05 39 24 39ZM24 36.75C27.5 36.75 30.5 35.5 33 33C35.5 30.5 36.75 27.5 36.75 24C36.75 20.5 35.5 17.5 33 15C30.5 12.5 27.5 11.25 24 11.25C20.5 11.25 17.5 12.5 15 15C12.5 17.5 11.25 20.5 11.25 24C11.25 27.5 12.5 30.5 15 33C17.5 35.5 20.5 36.75 24 36.75Z" fill="#39F2AE"/>
</svg>
