<svg width="48" height="48" viewBox="0 0 48 48" fill="none" xmlns="http://www.w3.org/2000/svg">
<path d="M11.5 39C10.8125 39 10.224 38.7551 9.73458 38.2654C9.24486 37.776 9 37.1875 9 36.5V11.5C9 10.8125 9.24486 10.2239 9.73458 9.73417C10.224 9.24472 10.8125 9 11.5 9H36.5C37.1875 9 37.7761 9.24472 38.2658 9.73417C38.7553 10.2239 39 10.8125 39 11.5V36.5C39 37.1875 38.7553 37.776 38.2658 38.2654C37.7761 38.7551 37.1875 39 36.5 39H11.5ZM11.5 36.5H36.5V14.8333H11.5V36.5ZM24.0017 32.125C21.7783 32.125 19.7917 31.5257 18.0417 30.3271C16.2917 29.1285 15.0139 27.5729 14.2083 25.6604C15.0139 23.7479 16.2911 22.1944 18.04 21C19.7889 19.8056 21.775 19.2083 23.9983 19.2083C26.2217 19.2083 28.2083 19.8076 29.9583 21.0063C31.7083 22.2049 32.9861 23.7604 33.7917 25.6729C32.9861 27.5854 31.7089 29.1389 29.96 30.3333C28.2111 31.5278 26.225 32.125 24.0017 32.125ZM24 30.0417C25.5833 30.0417 27.041 29.6551 28.3729 28.8821C29.7049 28.1093 30.7472 27.0375 31.5 25.6667C30.7472 24.2958 29.7049 23.224 28.3729 22.4513C27.041 21.6782 25.5833 21.2917 24 21.2917C22.4167 21.2917 20.959 21.6782 19.6271 22.4513C18.2951 23.224 17.2528 24.2958 16.5 25.6667C17.2528 27.0375 18.2951 28.1093 19.6271 28.8821C20.959 29.6551 22.4167 30.0417 24 30.0417ZM24.005 27.75C24.585 27.75 25.0764 27.5469 25.4792 27.1408C25.8819 26.7347 26.0833 26.2417 26.0833 25.6617C26.0833 25.0817 25.8803 24.5903 25.4742 24.1875C25.0681 23.7847 24.575 23.5833 23.995 23.5833C23.415 23.5833 22.9236 23.7864 22.5208 24.1925C22.1181 24.5986 21.9167 25.0917 21.9167 25.6717C21.9167 26.2517 22.1197 26.7431 22.5258 27.1458C22.9319 27.5486 23.425 27.75 24.005 27.75Z" fill="#39F2AE"/>
</svg>
