<svg width="48" height="48" viewBox="0 0 48 48" fill="none" xmlns="http://www.w3.org/2000/svg">
<path d="M11.25 36C10.65 36 10.125 35.775 9.675 35.325C9.225 34.875 9 34.35 9 33.75V14.25C9 13.65 9.225 13.125 9.675 12.675C10.125 12.225 10.65 12 11.25 12H36.75C37.35 12 37.875 12.225 38.325 12.675C38.775 13.125 39 13.65 39 14.25V33.75C39 34.35 38.775 34.875 38.325 35.325C37.875 35.775 37.35 36 36.75 36H11.25ZM11.25 33.75H36.75V17.4H11.25V33.75ZM22.425 30.3L17.625 25.5L19.275 23.85L22.425 27L28.725 20.7L30.375 22.35L22.425 30.3Z" fill="#39F2AE"/>
</svg>
